<?xml version="1.0" encoding="utf-8"?>
<!-- Generator: Adobe Illustrator 22.0.1, SVG Export Plug-In . SVG Version: 6.00 Build 0)  -->
<svg version="1.1" id="icons" xmlns="http://www.w3.org/2000/svg" xmlns:xlink="http://www.w3.org/1999/xlink" x="0px" y="0px"
	 viewBox="0 0 90 90" style="enable-background:new 0 0 90 90;" xml:space="preserve">
<path d="M87.8,23.1V4.5h-4.2V0.1H50.3v4.3h-4.4v8.8v9.8v8.5h-3.8v4.5h-6.5V40h-6.3v4.2h-4.2v4.5h-8.4v-4.5H12V40H8.1v-8.4H4.3v12.6
	v1.7v4.2v2.1v4.3h4.3v4.3h4.1v4.5h4.1v4.1h4v4h4.4v1.5v1.6v1.2v4.1v8.4h3.5h0.6h4.1v-4h-4.1v-4.4h4.1v-4.1h4.3v-4.2h4.5v4.2H46v12.5
	h0.8h3.4h4.1v-4h-4.1v-8.5v-8.3h4.1v-4.1h4.2v-6.4h4.3V44.2h4v4H71v-4v-1.3V40h-8.2v-8.4h16.8v-4.1H66.9v-4.4H87.8z M58.6,10.8h-4.2
	V6.7h4.2V10.8z"/>
</svg>
