<?xml version="1.0" encoding="utf-8"?>
<!-- Generator: Adobe Illustrator 22.0.1, SVG Export Plug-In . SVG Version: 6.00 Build 0)  -->
<svg version="1.1" id="Layer_1" xmlns="http://www.w3.org/2000/svg" xmlns:xlink="http://www.w3.org/1999/xlink" x="0px" y="0px"
	 viewBox="0 0 306 306" style="enable-background:new 0 0 306 306;" xml:space="preserve">
<path d="M153.6,3C70.3,3,2.6,70.5,2.6,153.8s67.8,150.9,150.9,150.9s150.9-67.5,150.9-150.8S236.8,3,153.6,3z M153.6,295.2
	c-78,0-141.3-63.5-141.3-141.3c0-78,63.3-141.3,141.3-141.3c77.8,0,141.2,63.3,141.3,141.3C294.9,231.9,231.4,295.2,153.6,295.2z"/>
<path d="M153.6,23.9C81.7,23.9,23.6,82,23.6,153.8s58.1,129.9,129.9,129.9s129.9-58.1,129.9-129.9S225.2,23.9,153.6,23.9z
	 M221,198.3c0,14.6-30.3,26.5-67.6,26.5s-67.6-11.9-67.6-26.5v-22.7c12.3,11.3,40.6,17.2,67.6,17.2s55.1-5.9,67.6-17.2V198.3z
	 M221,161c-1.4,10.7-28.6,22.1-67.6,22.1c-38.8,0-66.2-11.4-67.6-22.1v-28.3c12.3,11.3,40.6,17.2,67.6,17.2s55.1-5.9,67.6-17.2V161z
	 M221,118.1c-1.4,10.7-28.6,22.1-67.6,22.1c-38.8,0-66.2-11.4-67.6-22.1v-0.9c0-14.6,30.3-26.5,67.6-26.5s67.6,11.9,67.6,26.5V118.1
	z"/>
</svg>
